<svg width="42" height="34" viewBox="0 0 42 34" fill="none" xmlns="http://www.w3.org/2000/svg">
  <g style="mix-blend-mode:overlay" filter="url(#filter0_di_454_500)">
    <path
      d="M15.957 28H7.22656C5.58594 28 4.16016 27.4922 2.94922 26.4766C1.73828 25.4479 0.983073 24.1198 0.683594 22.4922C0.227865 19.6667 0 16.8346 0 13.9961C0 11.1706 0.227865 8.34505 0.683594 5.51953C0.983073 3.89193 1.73828 2.57031 2.94922 1.55469C4.16016 0.526042 5.58594 0.0117188 7.22656 0.0117188H15.957C17.5977 0.0117188 19.0234 0.526042 20.2344 1.55469C21.4453 2.57031 22.2005 3.89193 22.5 5.51953C22.9688 8.34505 23.2031 11.1706 23.2031 13.9961C23.2031 16.8346 22.9688 19.6667 22.5 22.4922C22.2005 24.1198 21.4453 25.4479 20.2344 26.4766C19.0234 27.4922 17.5977 28 15.957 28ZM13.0664 23.1758C14.043 23.1758 14.9023 22.8242 15.6445 22.1211C16.3997 21.418 16.9141 20.5846 17.1875 19.6211C17.6953 17.7461 17.9492 15.8711 17.9492 13.9961C17.9492 12.1211 17.6953 10.2526 17.1875 8.39062C16.9141 7.4401 16.3997 6.61328 15.6445 5.91016C14.9023 5.19401 14.043 4.83594 13.0664 4.83594H10.1172C9.15365 4.83594 8.28776 5.19401 7.51953 5.91016C6.76432 6.61328 6.25 7.4401 5.97656 8.39062C5.46875 10.2526 5.21484 12.1211 5.21484 13.9961C5.21484 15.8711 5.46875 17.7461 5.97656 19.6211C6.25 20.5846 6.76432 21.418 7.51953 22.1211C8.28776 22.8242 9.15365 23.1758 10.1172 23.1758H13.0664ZM36.4844 28H31.25V5.26562H27.7734V0.03125H36.4844V28Z"
      fill="white" />
  </g>
  <defs>
    <filter id="filter0_di_454_500" x="0" y="0.0117188" width="41.5946" height="33.0985" filterUnits="userSpaceOnUse"
      color-interpolation-filters="sRGB">
      <feFlood flood-opacity="0" result="BackgroundImageFix" />
      <feColorMatrix in="SourceAlpha" type="matrix" values="0 0 0 0 0 0 0 0 0 0 0 0 0 0 0 0 0 0 127 0"
        result="hardAlpha" />
      <feOffset dx="2.83903" dy="2.83903" />
      <feGaussianBlur stdDeviation="1.13561" />
      <feComposite in2="hardAlpha" operator="out" />
      <feColorMatrix type="matrix" values="0 0 0 0 0 0 0 0 0 0 0 0 0 0 0 0 0 0 0.25 0" />
      <feBlend mode="normal" in2="BackgroundImageFix" result="effect1_dropShadow_454_500" />
      <feBlend mode="normal" in="SourceGraphic" in2="effect1_dropShadow_454_500" result="shape" />
      <feColorMatrix in="SourceAlpha" type="matrix" values="0 0 0 0 0 0 0 0 0 0 0 0 0 0 0 0 0 0 127 0"
        result="hardAlpha" />
      <feOffset dx="2.83903" dy="2.83903" />
      <feGaussianBlur stdDeviation="1.13561" />
      <feComposite in2="hardAlpha" operator="arithmetic" k2="-1" k3="1" />
      <feColorMatrix type="matrix" values="0 0 0 0 0 0 0 0 0 0 0 0 0 0 0 0 0 0 0.25 0" />
      <feBlend mode="normal" in2="shape" result="effect2_innerShadow_454_500" />
    </filter>
  </defs>
</svg>