<svg width="240" height="135" viewBox="0 0 240 135" fill="none" xmlns="http://www.w3.org/2000/svg">
  <g style="mix-blend-mode:overlay" filter="url(#filter0_di_89_1100)">
    <path
      d="M71.8066 126H32.5195C25.1367 126 18.7207 123.715 13.2715 119.145C7.82227 114.516 4.42383 108.539 3.07617 101.215C1.02539 88.5 0 75.7559 0 62.9824C0 50.2676 1.02539 37.5527 3.07617 24.8379C4.42383 17.5137 7.82227 11.5664 13.2715 6.99609C18.7207 2.36719 25.1367 0.0527344 32.5195 0.0527344H71.8066C79.1895 0.0527344 85.6055 2.36719 91.0547 6.99609C96.5039 11.5664 99.9023 17.5137 101.25 24.8379C103.359 37.5527 104.414 50.2676 104.414 62.9824C104.414 75.7559 103.359 88.5 101.25 101.215C99.9023 108.539 96.5039 114.516 91.0547 119.145C85.6055 123.715 79.1895 126 71.8066 126ZM58.7988 104.291C63.1934 104.291 67.0605 102.709 70.4004 99.5449C73.7988 96.3809 76.1133 92.6309 77.3438 88.2949C79.6289 79.8574 80.7715 71.4199 80.7715 62.9824C80.7715 54.5449 79.6289 46.1367 77.3438 37.7578C76.1133 33.4805 73.7988 29.7598 70.4004 26.5957C67.0605 23.373 63.1934 21.7617 58.7988 21.7617H45.5273C41.1914 21.7617 37.2949 23.373 33.8379 26.5957C30.4395 29.7598 28.125 33.4805 26.8945 37.7578C24.6094 46.1367 23.4668 54.5449 23.4668 62.9824C23.4668 71.4199 24.6094 79.8574 26.8945 88.2949C28.125 92.6309 30.4395 96.3809 33.8379 99.5449C37.2949 102.709 41.1914 104.291 45.5273 104.291H58.7988ZM228.779 126H125.244C125.244 126 125.156 123.041 124.98 117.123C124.98 112.846 125.215 107.66 125.684 101.566C126.211 95.4727 127.295 89.3203 128.936 83.1094C130.576 76.8984 132.979 71.3613 136.143 66.498C139.365 61.5762 143.613 58.0898 148.887 56.0391C151.699 55.1016 154.658 54.6328 157.764 54.6328H185.889C188.76 54.6328 191.689 54.0762 194.678 52.9629C197.666 51.791 200.156 50.0039 202.148 47.6016C204.141 45.1406 205.137 42.0352 205.137 38.2852C205.137 34.4766 204.141 31.3711 202.148 28.9688C200.156 26.5664 197.666 24.7793 194.678 23.6074C191.689 22.4355 188.76 21.8496 185.889 21.8496H142.031V0.140625H198.984C201.504 0.140625 204.023 0.462891 206.543 1.10742C212.051 2.92383 216.562 5.70703 220.078 9.45703C223.652 13.1484 226.289 17.4551 227.988 22.377C229.688 27.2988 230.537 32.3672 230.537 37.582C230.537 45.9609 228.457 53.7832 224.297 61.0488C220.195 68.2559 214.277 73.0312 206.543 75.375C204.023 76.0195 201.504 76.3418 198.984 76.3418H168.926C165.82 76.3418 163.271 77.0742 161.279 78.5391C159.287 80.0039 157.676 81.8789 156.445 84.1641C155.273 86.3906 154.395 88.7344 153.809 91.1953C153.281 93.5977 152.93 95.8242 152.754 97.875C152.637 99.9258 152.578 101.449 152.578 102.445H228.779V126Z"
      fill="white" />
  </g>
  <defs>
    <filter id="filter0_di_89_1100" x="0" y="0.0527344" width="239.539" height="134.947" filterUnits="userSpaceOnUse"
      color-interpolation-filters="sRGB">
      <feFlood flood-opacity="0" result="BackgroundImageFix" />
      <feColorMatrix in="SourceAlpha" type="matrix" values="0 0 0 0 0 0 0 0 0 0 0 0 0 0 0 0 0 0 127 0"
        result="hardAlpha" />
      <feOffset dx="5" dy="5" />
      <feGaussianBlur stdDeviation="2" />
      <feComposite in2="hardAlpha" operator="out" />
      <feColorMatrix type="matrix" values="0 0 0 0 0 0 0 0 0 0 0 0 0 0 0 0 0 0 0.25 0" />
      <feBlend mode="normal" in2="BackgroundImageFix" result="effect1_dropShadow_89_1100" />
      <feBlend mode="normal" in="SourceGraphic" in2="effect1_dropShadow_89_1100" result="shape" />
      <feColorMatrix in="SourceAlpha" type="matrix" values="0 0 0 0 0 0 0 0 0 0 0 0 0 0 0 0 0 0 127 0"
        result="hardAlpha" />
      <feOffset dx="5" dy="5" />
      <feGaussianBlur stdDeviation="2" />
      <feComposite in2="hardAlpha" operator="arithmetic" k2="-1" k3="1" />
      <feColorMatrix type="matrix" values="0 0 0 0 0 0 0 0 0 0 0 0 0 0 0 0 0 0 0.25 0" />
      <feBlend mode="normal" in2="shape" result="effect2_innerShadow_89_1100" />
    </filter>
  </defs>
</svg>