<svg width="57" height="34" viewBox="0 0 57 34" fill="none" xmlns="http://www.w3.org/2000/svg">
  <g style="mix-blend-mode:overlay" filter="url(#filter0_di_454_505)">
    <path
      d="M15.957 28H7.22656C5.58594 28 4.16016 27.4922 2.94922 26.4766C1.73828 25.4479 0.983073 24.1198 0.683594 22.4922C0.227865 19.6667 0 16.8346 0 13.9961C0 11.1706 0.227865 8.34505 0.683594 5.51953C0.983073 3.89193 1.73828 2.57031 2.94922 1.55469C4.16016 0.526042 5.58594 0.0117188 7.22656 0.0117188H15.957C17.5977 0.0117188 19.0234 0.526042 20.2344 1.55469C21.4453 2.57031 22.2005 3.89193 22.5 5.51953C22.9688 8.34505 23.2031 11.1706 23.2031 13.9961C23.2031 16.8346 22.9688 19.6667 22.5 22.4922C22.2005 24.1198 21.4453 25.4479 20.2344 26.4766C19.0234 27.4922 17.5977 28 15.957 28ZM13.0664 23.1758C14.043 23.1758 14.9023 22.8242 15.6445 22.1211C16.3997 21.418 16.9141 20.5846 17.1875 19.6211C17.6953 17.7461 17.9492 15.8711 17.9492 13.9961C17.9492 12.1211 17.6953 10.2526 17.1875 8.39062C16.9141 7.4401 16.3997 6.61328 15.6445 5.91016C14.9023 5.19401 14.043 4.83594 13.0664 4.83594H10.1172C9.15365 4.83594 8.28776 5.19401 7.51953 5.91016C6.76432 6.61328 6.25 7.4401 5.97656 8.39062C5.46875 10.2526 5.21484 12.1211 5.21484 13.9961C5.21484 15.8711 5.46875 17.7461 5.97656 19.6211C6.25 20.5846 6.76432 21.418 7.51953 22.1211C8.28776 22.8242 9.15365 23.1758 10.1172 23.1758H13.0664ZM50.8398 28H27.832C27.832 28 27.8125 27.3424 27.7734 26.0273C27.7734 25.0768 27.8255 23.9245 27.9297 22.5703C28.0469 21.2161 28.2878 19.849 28.6523 18.4688C29.0169 17.0885 29.5508 15.8581 30.2539 14.7773C30.9701 13.6836 31.9141 12.9089 33.0859 12.4531C33.7109 12.2448 34.3685 12.1406 35.0586 12.1406H41.3086C41.9466 12.1406 42.5977 12.0169 43.2617 11.7695C43.9258 11.5091 44.4792 11.112 44.9219 10.5781C45.3646 10.0312 45.5859 9.34115 45.5859 8.50781C45.5859 7.66146 45.3646 6.97135 44.9219 6.4375C44.4792 5.90365 43.9258 5.50651 43.2617 5.24609C42.5977 4.98568 41.9466 4.85547 41.3086 4.85547H31.5625V0.03125H44.2188C44.7786 0.03125 45.3385 0.102865 45.8984 0.246094C47.1224 0.64974 48.125 1.26823 48.9062 2.10156C49.7005 2.92188 50.2865 3.87891 50.6641 4.97266C51.0417 6.06641 51.2305 7.19271 51.2305 8.35156C51.2305 10.2135 50.7682 11.9518 49.8438 13.5664C48.9323 15.168 47.6172 16.2292 45.8984 16.75C45.3385 16.8932 44.7786 16.9648 44.2188 16.9648H37.5391C36.849 16.9648 36.2826 17.1276 35.8398 17.4531C35.3971 17.7786 35.0391 18.1953 34.7656 18.7031C34.5052 19.1979 34.3099 19.7188 34.1797 20.2656C34.0625 20.7995 33.9844 21.2943 33.9453 21.75C33.9193 22.2057 33.9062 22.5443 33.9062 22.7656H50.8398V28Z"
      fill="white" />
  </g>
  <defs>
    <filter id="filter0_di_454_505" x="0" y="0.0117188" width="56.3446" height="33.0985" filterUnits="userSpaceOnUse"
      color-interpolation-filters="sRGB">
      <feFlood flood-opacity="0" result="BackgroundImageFix" />
      <feColorMatrix in="SourceAlpha" type="matrix" values="0 0 0 0 0 0 0 0 0 0 0 0 0 0 0 0 0 0 127 0"
        result="hardAlpha" />
      <feOffset dx="2.83903" dy="2.83903" />
      <feGaussianBlur stdDeviation="1.13561" />
      <feComposite in2="hardAlpha" operator="out" />
      <feColorMatrix type="matrix" values="0 0 0 0 0 0 0 0 0 0 0 0 0 0 0 0 0 0 0.25 0" />
      <feBlend mode="normal" in2="BackgroundImageFix" result="effect1_dropShadow_454_505" />
      <feBlend mode="normal" in="SourceGraphic" in2="effect1_dropShadow_454_505" result="shape" />
      <feColorMatrix in="SourceAlpha" type="matrix" values="0 0 0 0 0 0 0 0 0 0 0 0 0 0 0 0 0 0 127 0"
        result="hardAlpha" />
      <feOffset dx="2.83903" dy="2.83903" />
      <feGaussianBlur stdDeviation="1.13561" />
      <feComposite in2="hardAlpha" operator="arithmetic" k2="-1" k3="1" />
      <feColorMatrix type="matrix" values="0 0 0 0 0 0 0 0 0 0 0 0 0 0 0 0 0 0 0.25 0" />
      <feBlend mode="normal" in2="shape" result="effect2_innerShadow_454_505" />
    </filter>
  </defs>
</svg>