<svg width="229" height="135" viewBox="0 0 229 135" fill="none" xmlns="http://www.w3.org/2000/svg">
  <g style="mix-blend-mode:overlay" filter="url(#filter0_di_89_1110)">
    <path
      d="M71.8066 126H32.5195C25.1367 126 18.7207 123.715 13.2715 119.145C7.82227 114.516 4.42383 108.539 3.07617 101.215C1.02539 88.5 0 75.7559 0 62.9824C0 50.2676 1.02539 37.5527 3.07617 24.8379C4.42383 17.5137 7.82227 11.5664 13.2715 6.99609C18.7207 2.36719 25.1367 0.0527344 32.5195 0.0527344H71.8066C79.1895 0.0527344 85.6055 2.36719 91.0547 6.99609C96.5039 11.5664 99.9023 17.5137 101.25 24.8379C103.359 37.5527 104.414 50.2676 104.414 62.9824C104.414 75.7559 103.359 88.5 101.25 101.215C99.9023 108.539 96.5039 114.516 91.0547 119.145C85.6055 123.715 79.1895 126 71.8066 126ZM58.7988 104.291C63.1934 104.291 67.0605 102.709 70.4004 99.5449C73.7988 96.3809 76.1133 92.6309 77.3438 88.2949C79.6289 79.8574 80.7715 71.4199 80.7715 62.9824C80.7715 54.5449 79.6289 46.1367 77.3438 37.7578C76.1133 33.4805 73.7988 29.7598 70.4004 26.5957C67.0605 23.373 63.1934 21.7617 58.7988 21.7617H45.5273C41.1914 21.7617 37.2949 23.373 33.8379 26.5957C30.4395 29.7598 28.125 33.4805 26.8945 37.7578C24.6094 46.1367 23.4668 54.5449 23.4668 62.9824C23.4668 71.4199 24.6094 79.8574 26.8945 88.2949C28.125 92.6309 30.4395 96.3809 33.8379 99.5449C37.2949 102.709 41.1914 104.291 45.5273 104.291H58.7988ZM187.471 126H124.98V104.291H174.463C177.275 104.291 180.088 103.617 182.9 102.27C185.771 100.922 188.145 99.1055 190.02 96.8203C191.895 94.4766 192.832 91.9277 192.832 89.1738C192.832 86.3027 191.895 83.7246 190.02 81.4395C188.145 79.0957 185.771 77.25 182.9 75.9023C180.088 74.5547 177.275 73.8809 174.463 73.8809H141.768V52.2598H168.838C171.65 52.2598 174.463 51.6738 177.275 50.502C180.146 49.3301 182.52 47.6016 184.395 45.3164C186.27 43.0312 187.207 40.2773 187.207 37.0547C187.207 34.3008 186.27 31.7812 184.395 29.4961C182.52 27.2109 180.146 25.3652 177.275 23.959C174.463 22.5527 171.65 21.8496 168.838 21.8496H124.98V0.140625H181.934C184.863 0.140625 187.676 0.521484 190.371 1.2832C195.762 3.2168 200.098 6.08789 203.379 9.89648C206.719 13.6465 209.121 17.9238 210.586 22.7285C212.051 27.4746 212.783 32.1621 212.783 36.791C212.783 42.1816 211.963 47.0156 210.322 51.293C208.682 55.5117 206.455 58.3242 203.643 59.7305C207.744 60.6094 211.348 64.0078 214.453 69.9258C217.559 75.8438 219.111 82.582 219.111 90.1406C219.111 94.6523 218.379 99.1348 216.914 103.588C215.449 108.041 213.018 112.113 209.619 115.805C206.221 119.438 201.68 122.426 195.996 124.77C194.648 125.297 193.154 125.648 191.514 125.824C189.873 125.941 188.525 126 187.471 126Z"
      fill="white" />
  </g>
  <defs>
    <filter id="filter0_di_89_1110" x="0" y="0.0527344" width="228.109" height="134.947" filterUnits="userSpaceOnUse"
      color-interpolation-filters="sRGB">
      <feFlood flood-opacity="0" result="BackgroundImageFix" />
      <feColorMatrix in="SourceAlpha" type="matrix" values="0 0 0 0 0 0 0 0 0 0 0 0 0 0 0 0 0 0 127 0"
        result="hardAlpha" />
      <feOffset dx="5" dy="5" />
      <feGaussianBlur stdDeviation="2" />
      <feComposite in2="hardAlpha" operator="out" />
      <feColorMatrix type="matrix" values="0 0 0 0 0 0 0 0 0 0 0 0 0 0 0 0 0 0 0.25 0" />
      <feBlend mode="normal" in2="BackgroundImageFix" result="effect1_dropShadow_89_1110" />
      <feBlend mode="normal" in="SourceGraphic" in2="effect1_dropShadow_89_1110" result="shape" />
      <feColorMatrix in="SourceAlpha" type="matrix" values="0 0 0 0 0 0 0 0 0 0 0 0 0 0 0 0 0 0 127 0"
        result="hardAlpha" />
      <feOffset dx="5" dy="5" />
      <feGaussianBlur stdDeviation="2" />
      <feComposite in2="hardAlpha" operator="arithmetic" k2="-1" k3="1" />
      <feColorMatrix type="matrix" values="0 0 0 0 0 0 0 0 0 0 0 0 0 0 0 0 0 0 0.25 0" />
      <feBlend mode="normal" in2="shape" result="effect2_innerShadow_89_1110" />
    </filter>
  </defs>
</svg>