<svg width="54" height="34" viewBox="0 0 54 34" fill="none" xmlns="http://www.w3.org/2000/svg">
  <g style="mix-blend-mode:overlay" filter="url(#filter0_di_454_511)">
    <path
      d="M15.957 28H7.22656C5.58594 28 4.16016 27.4922 2.94922 26.4766C1.73828 25.4479 0.983073 24.1198 0.683594 22.4922C0.227865 19.6667 0 16.8346 0 13.9961C0 11.1706 0.227865 8.34505 0.683594 5.51953C0.983073 3.89193 1.73828 2.57031 2.94922 1.55469C4.16016 0.526042 5.58594 0.0117188 7.22656 0.0117188H15.957C17.5977 0.0117188 19.0234 0.526042 20.2344 1.55469C21.4453 2.57031 22.2005 3.89193 22.5 5.51953C22.9688 8.34505 23.2031 11.1706 23.2031 13.9961C23.2031 16.8346 22.9688 19.6667 22.5 22.4922C22.2005 24.1198 21.4453 25.4479 20.2344 26.4766C19.0234 27.4922 17.5977 28 15.957 28ZM13.0664 23.1758C14.043 23.1758 14.9023 22.8242 15.6445 22.1211C16.3997 21.418 16.9141 20.5846 17.1875 19.6211C17.6953 17.7461 17.9492 15.8711 17.9492 13.9961C17.9492 12.1211 17.6953 10.2526 17.1875 8.39062C16.9141 7.4401 16.3997 6.61328 15.6445 5.91016C14.9023 5.19401 14.043 4.83594 13.0664 4.83594H10.1172C9.15365 4.83594 8.28776 5.19401 7.51953 5.91016C6.76432 6.61328 6.25 7.4401 5.97656 8.39062C5.46875 10.2526 5.21484 12.1211 5.21484 13.9961C5.21484 15.8711 5.46875 17.7461 5.97656 19.6211C6.25 20.5846 6.76432 21.418 7.51953 22.1211C8.28776 22.8242 9.15365 23.1758 10.1172 23.1758H13.0664ZM41.6602 28H27.7734V23.1758H38.7695C39.3945 23.1758 40.0195 23.026 40.6445 22.7266C41.2826 22.4271 41.8099 22.0234 42.2266 21.5156C42.6432 20.9948 42.8516 20.4284 42.8516 19.8164C42.8516 19.1784 42.6432 18.6055 42.2266 18.0977C41.8099 17.5768 41.2826 17.1667 40.6445 16.8672C40.0195 16.5677 39.3945 16.418 38.7695 16.418H31.5039V11.6133H37.5195C38.1445 11.6133 38.7695 11.4831 39.3945 11.2227C40.0326 10.9622 40.5599 10.5781 40.9766 10.0703C41.3932 9.5625 41.6016 8.95052 41.6016 8.23438C41.6016 7.6224 41.3932 7.0625 40.9766 6.55469C40.5599 6.04688 40.0326 5.63672 39.3945 5.32422C38.7695 5.01172 38.1445 4.85547 37.5195 4.85547H27.7734V0.03125H40.4297C41.0807 0.03125 41.7057 0.115885 42.3047 0.285156C43.5026 0.714844 44.4661 1.35286 45.1953 2.19922C45.9375 3.03255 46.4714 3.98307 46.7969 5.05078C47.1224 6.10547 47.2852 7.14714 47.2852 8.17578C47.2852 9.3737 47.1029 10.4479 46.7383 11.3984C46.3737 12.3359 45.8789 12.9609 45.2539 13.2734C46.1654 13.4688 46.9661 14.224 47.6562 15.5391C48.3464 16.8542 48.6914 18.3516 48.6914 20.0312C48.6914 21.0339 48.5286 22.0299 48.2031 23.0195C47.8776 24.0091 47.3372 24.9141 46.582 25.7344C45.8268 26.5417 44.8177 27.2057 43.5547 27.7266C43.2552 27.8438 42.9232 27.9219 42.5586 27.9609C42.194 27.987 41.8945 28 41.6602 28Z"
      fill="white" />
  </g>
  <defs>
    <filter id="filter0_di_454_511" x="0" y="0.0117188" width="53.7978" height="33.0985" filterUnits="userSpaceOnUse"
      color-interpolation-filters="sRGB">
      <feFlood flood-opacity="0" result="BackgroundImageFix" />
      <feColorMatrix in="SourceAlpha" type="matrix" values="0 0 0 0 0 0 0 0 0 0 0 0 0 0 0 0 0 0 127 0"
        result="hardAlpha" />
      <feOffset dx="2.83903" dy="2.83903" />
      <feGaussianBlur stdDeviation="1.13561" />
      <feComposite in2="hardAlpha" operator="out" />
      <feColorMatrix type="matrix" values="0 0 0 0 0 0 0 0 0 0 0 0 0 0 0 0 0 0 0.25 0" />
      <feBlend mode="normal" in2="BackgroundImageFix" result="effect1_dropShadow_454_511" />
      <feBlend mode="normal" in="SourceGraphic" in2="effect1_dropShadow_454_511" result="shape" />
      <feColorMatrix in="SourceAlpha" type="matrix" values="0 0 0 0 0 0 0 0 0 0 0 0 0 0 0 0 0 0 127 0"
        result="hardAlpha" />
      <feOffset dx="2.83903" dy="2.83903" />
      <feGaussianBlur stdDeviation="1.13561" />
      <feComposite in2="hardAlpha" operator="arithmetic" k2="-1" k3="1" />
      <feColorMatrix type="matrix" values="0 0 0 0 0 0 0 0 0 0 0 0 0 0 0 0 0 0 0.25 0" />
      <feBlend mode="normal" in2="shape" result="effect2_innerShadow_454_511" />
    </filter>
  </defs>
</svg>