<svg width="244" height="135" viewBox="0 0 244 135" fill="none" xmlns="http://www.w3.org/2000/svg">
  <g style="mix-blend-mode:overlay" filter="url(#filter0_di_89_1112)">
    <path
      d="M71.8066 126H32.5195C25.1367 126 18.7207 123.715 13.2715 119.145C7.82227 114.516 4.42383 108.539 3.07617 101.215C1.02539 88.5 0 75.7559 0 62.9824C0 50.2676 1.02539 37.5527 3.07617 24.8379C4.42383 17.5137 7.82227 11.5664 13.2715 6.99609C18.7207 2.36719 25.1367 0.0527344 32.5195 0.0527344H71.8066C79.1895 0.0527344 85.6055 2.36719 91.0547 6.99609C96.5039 11.5664 99.9023 17.5137 101.25 24.8379C103.359 37.5527 104.414 50.2676 104.414 62.9824C104.414 75.7559 103.359 88.5 101.25 101.215C99.9023 108.539 96.5039 114.516 91.0547 119.145C85.6055 123.715 79.1895 126 71.8066 126ZM58.7988 104.291C63.1934 104.291 67.0605 102.709 70.4004 99.5449C73.7988 96.3809 76.1133 92.6309 77.3438 88.2949C79.6289 79.8574 80.7715 71.4199 80.7715 62.9824C80.7715 54.5449 79.6289 46.1367 77.3438 37.7578C76.1133 33.4805 73.7988 29.7598 70.4004 26.5957C67.0605 23.373 63.1934 21.7617 58.7988 21.7617H45.5273C41.1914 21.7617 37.2949 23.373 33.8379 26.5957C30.4395 29.7598 28.125 33.4805 26.8945 37.7578C24.6094 46.1367 23.4668 54.5449 23.4668 62.9824C23.4668 71.4199 24.6094 79.8574 26.8945 88.2949C28.125 92.6309 30.4395 96.3809 33.8379 99.5449C37.2949 102.709 41.1914 104.291 45.5273 104.291H58.7988ZM219.111 126H195.557V93.6562H158.467C157.529 93.6562 156.035 93.5391 153.984 93.3047C147.715 92.7773 142.412 90.3164 138.076 85.9219C133.799 81.5273 130.547 75.9609 128.32 69.2227C126.094 62.4844 124.98 55.3359 124.98 47.7773V0.140625H149.238V47.7773C149.238 52.6406 150.322 56.8887 152.49 60.5215C154.717 64.1543 157.412 66.9668 160.576 68.959C163.74 70.9512 166.758 71.9473 169.629 71.9473H195.557V0.140625H219.111V71.9473H234.404V93.6562H219.111V126Z"
      fill="white" />
  </g>
  <defs>
    <filter id="filter0_di_89_1112" x="0" y="0.0527344" width="243.406" height="134.947" filterUnits="userSpaceOnUse"
      color-interpolation-filters="sRGB">
      <feFlood flood-opacity="0" result="BackgroundImageFix" />
      <feColorMatrix in="SourceAlpha" type="matrix" values="0 0 0 0 0 0 0 0 0 0 0 0 0 0 0 0 0 0 127 0"
        result="hardAlpha" />
      <feOffset dx="5" dy="5" />
      <feGaussianBlur stdDeviation="2" />
      <feComposite in2="hardAlpha" operator="out" />
      <feColorMatrix type="matrix" values="0 0 0 0 0 0 0 0 0 0 0 0 0 0 0 0 0 0 0.25 0" />
      <feBlend mode="normal" in2="BackgroundImageFix" result="effect1_dropShadow_89_1112" />
      <feBlend mode="normal" in="SourceGraphic" in2="effect1_dropShadow_89_1112" result="shape" />
      <feColorMatrix in="SourceAlpha" type="matrix" values="0 0 0 0 0 0 0 0 0 0 0 0 0 0 0 0 0 0 127 0"
        result="hardAlpha" />
      <feOffset dx="5" dy="5" />
      <feGaussianBlur stdDeviation="2" />
      <feComposite in2="hardAlpha" operator="arithmetic" k2="-1" k3="1" />
      <feColorMatrix type="matrix" values="0 0 0 0 0 0 0 0 0 0 0 0 0 0 0 0 0 0 0.25 0" />
      <feBlend mode="normal" in2="shape" result="effect2_innerShadow_89_1112" />
    </filter>
  </defs>
</svg>