<svg width="58" height="34" viewBox="0 0 58 34" fill="none" xmlns="http://www.w3.org/2000/svg">
  <g style="mix-blend-mode:overlay" filter="url(#filter0_di_454_517)">
    <path
      d="M15.957 28H7.22656C5.58594 28 4.16016 27.4922 2.94922 26.4766C1.73828 25.4479 0.983073 24.1198 0.683594 22.4922C0.227865 19.6667 0 16.8346 0 13.9961C0 11.1706 0.227865 8.34505 0.683594 5.51953C0.983073 3.89193 1.73828 2.57031 2.94922 1.55469C4.16016 0.526042 5.58594 0.0117188 7.22656 0.0117188H15.957C17.5977 0.0117188 19.0234 0.526042 20.2344 1.55469C21.4453 2.57031 22.2005 3.89193 22.5 5.51953C22.9688 8.34505 23.2031 11.1706 23.2031 13.9961C23.2031 16.8346 22.9688 19.6667 22.5 22.4922C22.2005 24.1198 21.4453 25.4479 20.2344 26.4766C19.0234 27.4922 17.5977 28 15.957 28ZM13.0664 23.1758C14.043 23.1758 14.9023 22.8242 15.6445 22.1211C16.3997 21.418 16.9141 20.5846 17.1875 19.6211C17.6953 17.7461 17.9492 15.8711 17.9492 13.9961C17.9492 12.1211 17.6953 10.2526 17.1875 8.39062C16.9141 7.4401 16.3997 6.61328 15.6445 5.91016C14.9023 5.19401 14.043 4.83594 13.0664 4.83594H10.1172C9.15365 4.83594 8.28776 5.19401 7.51953 5.91016C6.76432 6.61328 6.25 7.4401 5.97656 8.39062C5.46875 10.2526 5.21484 12.1211 5.21484 13.9961C5.21484 15.8711 5.46875 17.7461 5.97656 19.6211C6.25 20.5846 6.76432 21.418 7.51953 22.1211C8.28776 22.8242 9.15365 23.1758 10.1172 23.1758H13.0664ZM48.6914 28H43.457V20.8125H35.2148C35.0065 20.8125 34.6745 20.7865 34.2188 20.7344C32.8255 20.6172 31.6471 20.0703 30.6836 19.0938C29.7331 18.1172 29.0104 16.8802 28.5156 15.3828C28.0208 13.8854 27.7734 12.2969 27.7734 10.6172V0.03125H33.1641V10.6172C33.1641 11.6979 33.4049 12.6419 33.8867 13.4492C34.3815 14.2565 34.9805 14.8815 35.6836 15.3242C36.3867 15.7669 37.0573 15.9883 37.6953 15.9883H43.457V0.03125H48.6914V15.9883H52.0898V20.8125H48.6914V28Z"
      fill="white" />
  </g>
  <defs>
    <filter id="filter0_di_454_517" x="0" y="0.0117188" width="57.204" height="33.0985" filterUnits="userSpaceOnUse"
      color-interpolation-filters="sRGB">
      <feFlood flood-opacity="0" result="BackgroundImageFix" />
      <feColorMatrix in="SourceAlpha" type="matrix" values="0 0 0 0 0 0 0 0 0 0 0 0 0 0 0 0 0 0 127 0"
        result="hardAlpha" />
      <feOffset dx="2.83903" dy="2.83903" />
      <feGaussianBlur stdDeviation="1.13561" />
      <feComposite in2="hardAlpha" operator="out" />
      <feColorMatrix type="matrix" values="0 0 0 0 0 0 0 0 0 0 0 0 0 0 0 0 0 0 0.25 0" />
      <feBlend mode="normal" in2="BackgroundImageFix" result="effect1_dropShadow_454_517" />
      <feBlend mode="normal" in="SourceGraphic" in2="effect1_dropShadow_454_517" result="shape" />
      <feColorMatrix in="SourceAlpha" type="matrix" values="0 0 0 0 0 0 0 0 0 0 0 0 0 0 0 0 0 0 127 0"
        result="hardAlpha" />
      <feOffset dx="2.83903" dy="2.83903" />
      <feGaussianBlur stdDeviation="1.13561" />
      <feComposite in2="hardAlpha" operator="arithmetic" k2="-1" k3="1" />
      <feColorMatrix type="matrix" values="0 0 0 0 0 0 0 0 0 0 0 0 0 0 0 0 0 0 0.25 0" />
      <feBlend mode="normal" in2="shape" result="effect2_innerShadow_454_517" />
    </filter>
  </defs>
</svg>