<svg width="19" height="18" viewBox="0 0 19 18" fill="none" xmlns="http://www.w3.org/2000/svg">
  <path d="M2.59612 9.65327L9.75741 16.849C9.88556 16.9777 9.95271 17.1294 9.95885 17.3041C9.96412 17.4787 9.8939 17.6388 9.74819 17.7843C9.60424 17.9254 9.44931 17.9973 9.28341 18C9.11839 18.0017 8.96302 17.9298 8.81731 17.7843L0.812047 9.74058C0.697059 9.62416 0.616305 9.50597 0.569783 9.38602C0.523261 9.26607 0.5 9.13466 0.5 8.99177C0.5 8.84889 0.523261 8.71747 0.569783 8.59752C0.616305 8.47757 0.697059 8.35983 0.812047 8.24429L8.81731 0.199226C8.9402 0.0757474 9.08986 0.00959811 9.26629 0.000778224C9.4436 -0.00804167 9.60467 0.0581076 9.74951 0.199226C9.89434 0.344754 9.96675 0.501748 9.96675 0.670208C9.96675 0.83955 9.89434 0.996985 9.74951 1.14251L2.5948 8.33028L17.8417 8.33028C18.0295 8.33028 18.1862 8.39334 18.3117 8.51947C18.4372 8.64559 18.5 8.80303 18.5 8.99177C18.5 9.18052 18.4372 9.33796 18.3117 9.46408C18.1862 9.5902 18.0295 9.65327 17.8417 9.65327L2.59612 9.65327Z" fill="white"/>
</svg>