<svg width="19" height="18" viewBox="0 0 19 18" fill="none" xmlns="http://www.w3.org/2000/svg">
  <path d="M16.4039 8.34673L9.24259 1.15103C9.11444 1.02226 9.04729 0.870554 9.04115 0.695919C9.03588 0.521286 9.1061 0.361206 9.25181 0.215677C9.39576 0.0745602 9.55069 0.00267792 9.71659 3.24249e-05C9.88161 -0.00173187 10.037 0.0701504 10.1827 0.215677L18.188 8.25942C18.3029 8.37584 18.3837 8.49403 18.4302 8.61398C18.4767 8.73393 18.5 8.86534 18.5 9.00823C18.5 9.15111 18.4767 9.28253 18.4302 9.40248C18.3837 9.52243 18.3029 9.64017 18.188 9.75571L10.1827 17.8008C10.0598 17.9243 9.91014 17.9904 9.73371 17.9992C9.5564 18.008 9.39533 17.9419 9.25049 17.8008C9.10566 17.6552 9.03325 17.4983 9.03325 17.3298C9.03325 17.1605 9.10566 17.003 9.25049 16.8575L16.4052 9.66972L1.15833 9.66972C0.970486 9.66972 0.813803 9.60666 0.688282 9.48053C0.562759 9.35441 0.5 9.19697 0.5 9.00823C0.5 8.81948 0.562759 8.66204 0.688282 8.53592C0.813803 8.4098 0.970486 8.34673 1.15833 8.34673L16.4039 8.34673Z" fill="white"/>
</svg>