<svg width="41" height="40" viewBox="0 0 41 40" fill="none" xmlns="http://www.w3.org/2000/svg">
  <rect x="4.66667" y="4.16667" width="31.6667" height="31.6667" stroke="#D35400" stroke-width="8.33333" />
  <path
    d="M20.5 0C16.5444 0 12.6776 1.17298 9.3886 3.37061C6.09962 5.56823 3.53617 8.69181 2.02242 12.3463C0.508666 16.0009 0.112599 20.0222 0.884303 23.9018C1.65601 27.7814 3.56082 31.3451 6.35787 34.1421C9.15492 36.9392 12.7186 38.844 16.5982 39.6157C20.4778 40.3874 24.4991 39.9913 28.1537 38.4776C31.8082 36.9638 34.9318 34.4004 37.1294 31.1114C39.327 27.8224 40.5 23.9556 40.5 20C40.5 14.6957 38.3929 9.60859 34.6421 5.85786C30.8914 2.10714 25.8043 0 20.5 0ZM17.6429 27.9857L10.5 20.8429L12.7714 18.5714L17.6429 23.4429L28.2286 12.8571L30.5086 15.1229L17.6429 27.9857Z"
    fill="#D35400" />
</svg>