<svg width="40" height="40" viewBox="0 0 40 40" fill="none" xmlns="http://www.w3.org/2000/svg">
  <rect x="3.52941" y="3.52941" width="32.9412" height="32.9412" stroke="black" stroke-width="7.05882" />
  <path
    d="M19.6146 15.7832C17.5569 15.7832 15.8828 17.4573 15.8828 19.515C15.8828 21.5726 17.5569 23.2467 19.6146 23.2467C21.6722 23.2467 23.3464 21.5726 23.3464 19.515C23.3464 17.4573 21.6722 15.7832 19.6146 15.7832Z"
    fill="black" />
  <path
    d="M24.2388 9.91211H14.7941C12.1023 9.91211 9.91406 12.1015 9.91406 14.792V24.2379C9.91406 26.9285 12.1035 29.1179 14.7941 29.1179H24.2388C26.9305 29.1179 29.1199 26.9285 29.1199 24.2379V14.792C29.1199 12.1015 26.9305 9.91211 24.2388 9.91211ZM19.6141 25.3415C16.4011 25.3415 13.7882 22.7274 13.7882 19.5156C13.7882 16.3027 16.4011 13.6898 19.6141 13.6898C22.827 13.6898 25.44 16.3027 25.44 19.5156C25.44 22.7274 22.8258 25.3415 19.6141 25.3415ZM25.78 14.6838C25.0141 14.6838 24.3929 14.0626 24.3929 13.2968C24.3929 12.5309 25.0141 11.9098 25.78 11.9098C26.5458 11.9098 27.167 12.5309 27.167 13.2968C27.167 14.0626 26.5458 14.6838 25.78 14.6838Z"
    fill="black" />
  <path
    d="M19.5153 0C8.73764 0 0 8.73766 0 19.5153C0 30.293 8.73764 39.0306 19.5153 39.0306C30.2929 39.0306 39.0306 30.293 39.0306 19.5153C39.0306 8.73766 30.2929 0 19.5153 0ZM31.3447 24.2376C31.3447 28.1565 28.1565 31.3436 24.2388 31.3436H14.7941C10.8753 31.3436 7.68824 28.1553 7.68824 24.2376V14.7918C7.68824 10.8729 10.8765 7.68591 14.7941 7.68591H24.2388C28.1576 7.68591 31.3447 10.8729 31.3447 14.7918V24.2376Z"
    fill="black" />
</svg>