<?xml version="1.0" encoding="utf-8"?>
<!-- Generator: Adobe Illustrator 25.4.1, SVG Export Plug-In . SVG Version: 6.00 Build 0)  -->
<svg version="1.1" id="Слой_1" xmlns="http://www.w3.org/2000/svg" xmlns:xlink="http://www.w3.org/1999/xlink" x="0px" y="0px"
	 viewBox="0 0 283.5 283.5" style="enable-background:new 0 0 283.5 283.5;" xml:space="preserve">
<style type="text/css">
	.st0{fill:#FFFFFF;}
	.st1{clip-path:url(#SVGID_00000123420500740684766330000015579518745607487408_);}
	.st2{clip-path:url(#SVGID_00000057132664300113311740000017188929378425211808_);}
	.st3{clip-path:url(#SVGID_00000008867812061459662870000006555584823616859815_);}
	.st4{clip-path:url(#SVGID_00000054248246350995446430000014716369937109444496_);}
	.st5{clip-path:url(#SVGID_00000180352530507123723420000000296597384415474575_);}
</style>
<g>
	<g>
		<g>
			<path class="st0" d="M53.9,130.1c0.7,0.8,0.9,1.8,0.8,3c-0.3,2.1-1.7,4.7-4,7.3c0.4,0.5,0.8,0.9,1.2,1.4
				c3.4-4.2,5.2-8.4,5.2-11.6c0-0.6-0.1-1.1-0.2-1.6c-0.5-1.9-1.7-3.3-3.8-3.9c-4-1.3-10.5,0.3-17,4c1.2,0.6,2.3,1.4,3.5,2.1
				C46.1,128.2,51.8,127.8,53.9,130.1z"/>
			<path class="st0" d="M50.6,143.2c2.3,2.6,3.8,5.2,4,7.3c0.2,1.2-0.1,2.2-0.8,3c-2.1,2.4-7.8,1.9-14.3-0.7
				c-1.2,0.8-2.3,1.5-3.5,2.1c6.5,3.6,13,5.3,17,4c2-0.7,3.3-2,3.8-3.9c0.1-0.5,0.2-1.1,0.2-1.6c0-3.2-1.9-7.3-5.2-11.6
				C51.4,142.2,51,142.8,50.6,143.2z"/>
			<path class="st0" d="M17.6,133.1c0-0.2,0-0.5,0-0.7c0-0.9,0.3-1.7,0.8-2.3c2.1-2.3,7.8-1.9,14.3,0.7c1.2-0.8,2.3-1.5,3.5-2.1
				c-6.5-3.6-13-5.3-17-4c-2,0.7-3.3,2-3.8,3.9c-0.8,3.4,1.1,8.2,5.1,13.2c0.4-0.5,0.8-0.9,1.2-1.4
				C19.3,137.8,17.8,135.2,17.6,133.1z"/>
			<path class="st0" d="M22.9,141.8c-0.5,0.5-0.9,0.9-1.3,1.4c0.8,0.9,1.7,1.8,2.6,2.8c2.6,2.6,5.5,4.9,8.5,6.9
				c1.1-0.4,2.3-1,3.5-1.6c-1.9-0.9-3.8-2-5.6-3.2C27.6,146.1,25,143.9,22.9,141.8z"/>
			<path class="st0" d="M50.6,140.4c-0.8-0.9-1.7-1.8-2.6-2.8c-2.6-2.6-5.5-4.9-8.5-6.9c-1.2-0.8-2.3-1.5-3.5-2.1
				c-1.2,0.6-2.3,1.4-3.5,2.1c1.1,0.4,2.3,1,3.5,1.6c1.9,0.9,3.8,2,5.6,3.2c2.9,1.9,5.5,4.1,7.6,6.2c0.5,0.5,0.9,0.9,1.3,1.4
				c0.4-0.5,0.8-0.9,1.2-1.4C51.4,141.4,51,140.9,50.6,140.4z"/>
			<path class="st0" d="M49.3,141.8c-2.1,2.1-4.7,4.3-7.6,6.2c-1.8,1.2-3.7,2.3-5.6,3.2c-1.2,0.6-2.3,1.1-3.5,1.6
				c-6.5,2.6-12.2,3.1-14.3,0.7c-0.5-0.6-0.8-1.4-0.8-2.3c0-0.2,0-0.4,0-0.7c0.3-2.1,1.7-4.7,4-7.3c0.4-0.5,0.8-0.9,1.3-1.4
				c2.1-2.1,4.7-4.3,7.6-6.2c1.8-1.2,3.7-2.3,5.6-3.2c-1.2-0.6-2.3-1.1-3.5-1.6c-3,1.9-5.8,4.3-8.5,6.9l0,0
				c-0.9,0.9-1.8,1.8-2.6,2.8c-0.4,0.5-0.8,0.9-1.2,1.4c-4,5-5.9,9.8-5.1,13.2c0.4,1.9,1.7,3.3,3.8,3.9c4,1.3,10.5-0.4,17-4
				c1.2-0.6,2.3-1.4,3.5-2.1c3-1.9,5.8-4.3,8.5-6.9c0.9-0.9,1.8-1.8,2.6-2.8C50.2,142.8,49.8,142.2,49.3,141.8z"/>
		</g>
		<path class="st0" d="M75,157.2h4.4v-16.4c0-0.2,0-0.4-0.1-0.7s-0.1-0.4-0.1-0.5c0.1,0.2,0.4,0.6,0.9,1.3s1.1,1.6,1.8,2.6
			s1.5,2.1,2.3,3.2c0.8,1.2,1.6,2.3,2.3,3.3c0.7,1,1.4,1.9,1.9,2.7s0.9,1.3,1.1,1.5c0.2-0.3,0.5-0.8,1.1-1.6
			c0.5-0.7,1.1-1.6,1.8-2.6s1.4-2,2.2-3.1c0.8-1.1,1.5-2.1,2.2-3.1s1.3-1.9,1.8-2.6c0.5-0.8,0.9-1.3,1.2-1.6c0,0.1,0,0.3-0.1,0.5
			c0,0.2-0.1,0.5-0.1,0.7v16.4h4.7v-30.7c-0.2,0.3-0.6,0.8-1.1,1.5c-0.5,0.7-1.1,1.5-1.8,2.5c-0.7,1-1.5,2-2.3,3.2s-1.7,2.3-2.5,3.5
			s-1.7,2.3-2.5,3.4s-1.5,2.1-2.2,3c-0.6,0.9-1.2,1.6-1.6,2.2c-0.4,0.6-0.7,1-0.8,1.1c-0.2-0.3-0.7-1-1.5-2c-0.7-1-1.6-2.2-2.6-3.6
			c-1-1.4-2.1-2.9-3.2-4.5s-2.2-3.1-3.2-4.5s-1.9-2.6-2.7-3.7c-0.8-1.1-1.3-1.8-1.5-2.2L75,157.2L75,157.2z M139.4,157.2v-10.9h4.3
			h0.9c0.5,0.8,1.1,1.6,1.6,2.6s1.2,1.9,1.8,2.8c0.6,0.9,1.2,1.9,1.8,2.9s1.2,1.9,1.8,2.8h5.5c-1.4-2.1-2.7-4.2-4-6.3
			c-1.3-2.2-2.6-4.1-3.7-5.9c0.9-0.4,1.6-1,2.2-1.7s1.1-1.4,1.5-2.2s0.7-1.6,0.8-2.4c0.2-0.8,0.2-1.7,0.2-2.5c0-1.6-0.3-2.9-0.8-4.1
			c-0.5-1.2-1.3-2.2-2.3-3.1c-1-0.8-2.1-1.5-3.5-1.9s-2.8-0.6-4.4-0.6h-8.4v30.7L139.4,157.2L139.4,157.2z M139.4,130.9h4.2
			c1.1,0,2,0.2,2.8,0.6c0.8,0.4,1.4,0.8,1.8,1.4c0.4,0.6,0.8,1.1,0.9,1.8c0.2,0.6,0.3,1.2,0.3,1.8s-0.1,1.1-0.3,1.8
			c-0.2,0.6-0.5,1.3-0.9,1.8c-0.4,0.6-1,1-1.8,1.4s-1.7,0.6-2.8,0.6h-4.2V130.9z M161.8,157.2h4.6v-30.7h-4.6V157.2z M171.2,157.2
			h9.2c2.1,0,4.1-0.4,5.9-1c1.9-0.7,3.5-1.7,4.9-3s2.5-2.9,3.3-4.7c0.8-1.9,1.2-3.9,1.2-6.2c0-1.9-0.3-3.7-0.9-5.6
			c-0.6-1.9-1.6-3.6-2.9-5.1s-3.1-2.7-5.2-3.7c-2.1-0.9-4.8-1.4-7.9-1.4h-7.7L171.2,157.2L171.2,157.2z M175.8,152.8v-21.8h4.4
			c1.4,0,2.7,0.2,4,0.7s2.5,1.1,3.5,2s1.9,2.1,2.5,3.4c0.6,1.4,1,3,1,4.9c0,1.8-0.3,3.3-0.9,4.6c-0.6,1.3-1.4,2.5-2.4,3.4
			s-2.2,1.6-3.6,2.1s-2.9,0.7-4.6,0.7L175.8,152.8L175.8,152.8z M200.4,157.2h4.6v-30.7h-4.6V157.2z M237,157.2
			c-0.2-0.4-0.5-1.1-0.9-2.1s-1-2.3-1.6-3.7c-0.6-1.5-1.3-3.1-2.1-4.8s-1.5-3.5-2.3-5.3s-1.5-3.6-2.3-5.4c-0.8-1.8-1.4-3.4-2-4.8
			c-0.6-1.4-1.1-2.7-1.6-3.7c-0.5-1-0.7-1.8-0.9-2.2l-13.7,32.1h4.6l3.6-8.8h10.8c0.4,1,0.8,1.9,1.2,2.9s0.7,1.8,1.1,2.5
			c0.3,0.8,0.6,1.5,0.9,2.1c0.2,0.6,0.4,1,0.6,1.4L237,157.2L237,157.2z M222.9,136.2c0-0.1,0.1-0.2,0.2-0.6s0.2-0.6,0.2-0.9
			c0.1,0.3,0.1,0.6,0.2,0.9c0.1,0.3,0.2,0.5,0.2,0.6c0.1,0.3,0.3,0.7,0.5,1.3c0.2,0.5,0.5,1.2,0.8,1.9s0.6,1.5,1,2.4
			s0.7,1.8,1.1,2.7h-7.7L222.9,136.2z M263.9,126.5v19.8l0.1,1.4l-0.8-1.2c-0.3-0.4-0.8-0.9-1.5-1.6c-0.7-0.7-1.5-1.6-2.5-2.5
			c-1-1-2-2-3.2-3.1c-1.2-1.1-2.4-2.2-3.6-3.4c-1.2-1.2-2.4-2.3-3.6-3.4c-1.2-1.1-2.2-2.2-3.2-3.1s-1.8-1.8-2.5-2.6
			c-0.7-0.7-1.2-1.3-1.5-1.7v32.1h4.6v-20.2l-0.1-1.4l0.8,1.1c0.4,0.5,1.1,1.3,2.2,2.4c1.1,1.1,2.4,2.4,3.9,3.9s3,3,4.7,4.6
			c1.6,1.6,3.2,3.1,4.7,4.6s2.8,2.8,3.9,3.9s1.9,1.9,2.3,2.4v-32.1L263.9,126.5L263.9,126.5z M113.9,139.7h-4.7v4.3h4.7h3h10.8v-4.3
			h-10.8H113.9z M113.9,130.8h3h12.5v-4.2h-20.1v4.2H113.9z M116.8,152.9h-3h-4.7v4.3h20.7v-4.3H116.8z"/>
	</g>
	<g>
		<g>
			<g>
				<g>
					<path id="SVGID_1_" class="st0" d="M53.9,130.1c0.7,0.8,0.9,1.8,0.8,3c-0.3,2.1-1.7,4.7-4,7.3c0.4,0.5,0.8,0.9,1.2,1.4
						c3.4-4.2,5.2-8.4,5.2-11.6c0-0.6-0.1-1.1-0.2-1.6c-0.5-1.9-1.7-3.3-3.8-3.9c-4-1.3-10.5,0.3-17,4c1.2,0.6,2.3,1.4,3.5,2.1
						C46.1,128.2,51.8,127.8,53.9,130.1z"/>
				</g>
				<g>
					<defs>
						<path id="SVGID_00000035533233472090547130000003381677942649633935_" d="M53.9,130.1c0.7,0.8,0.9,1.8,0.8,3
							c-0.3,2.1-1.7,4.7-4,7.3c0.4,0.5,0.8,0.9,1.2,1.4c3.4-4.2,5.2-8.4,5.2-11.6c0-0.6-0.1-1.1-0.2-1.6c-0.5-1.9-1.7-3.3-3.8-3.9
							c-4-1.3-10.5,0.3-17,4c1.2,0.6,2.3,1.4,3.5,2.1C46.1,128.2,51.8,127.8,53.9,130.1z"/>
					</defs>
					<clipPath id="SVGID_00000169554197440200118070000009134180212219755178_">
						<use xlink:href="#SVGID_00000035533233472090547130000003381677942649633935_"  style="overflow:visible;"/>
					</clipPath>
					<g style="clip-path:url(#SVGID_00000169554197440200118070000009134180212219755178_);">
						
							<image style="overflow:visible;enable-background:new    ;" width="375" height="371" xlink:href="37D6DF81.png"  transform="matrix(0.2368 0 0 0.2368 8.0099 95.6836)">
						</image>
					</g>
				</g>
			</g>
			<g>
				<g>
					<path id="SVGID_00000173846102735807038830000000845297552620716198_" class="st0" d="M53.9,130.1c0.7,0.8,0.9,1.8,0.8,3
						c-0.3,2.1-1.7,4.7-4,7.3c0.4,0.5,0.8,0.9,1.2,1.4c3.4-4.2,5.2-8.4,5.2-11.6c0-0.6-0.1-1.1-0.2-1.6c-0.5-1.9-1.7-3.3-3.8-3.9
						c-4-1.3-10.5,0.3-17,4c1.2,0.6,2.3,1.4,3.5,2.1C46.1,128.2,51.8,127.8,53.9,130.1z"/>
				</g>
				<g>
					<defs>
						<path id="SVGID_00000013901311601644052240000005913763803958385293_" d="M53.9,130.1c0.7,0.8,0.9,1.8,0.8,3
							c-0.3,2.1-1.7,4.7-4,7.3c0.4,0.5,0.8,0.9,1.2,1.4c3.4-4.2,5.2-8.4,5.2-11.6c0-0.6-0.1-1.1-0.2-1.6c-0.5-1.9-1.7-3.3-3.8-3.9
							c-4-1.3-10.5,0.3-17,4c1.2,0.6,2.3,1.4,3.5,2.1C46.1,128.2,51.8,127.8,53.9,130.1z"/>
					</defs>
					<clipPath id="SVGID_00000088828737016456684280000006778054025439462825_">
						<use xlink:href="#SVGID_00000013901311601644052240000005913763803958385293_"  style="overflow:visible;"/>
					</clipPath>
					<g style="clip-path:url(#SVGID_00000088828737016456684280000006778054025439462825_);">
						
							<image style="overflow:visible;enable-background:new    ;" width="375" height="375" xlink:href="37D6DF83.png"  transform="matrix(0.2362 0 0 0.2362 12.8099 90.77)">
						</image>
					</g>
				</g>
			</g>
			<g>
				<g>
					<path id="SVGID_00000118370655393375239840000017984066861023863943_" class="st0" d="M53.9,130.1c0.7,0.8,0.9,1.8,0.8,3
						c-0.3,2.1-1.7,4.7-4,7.3c0.4,0.5,0.8,0.9,1.2,1.4c3.4-4.2,5.2-8.4,5.2-11.6c0-0.6-0.1-1.1-0.2-1.6c-0.5-1.9-1.7-3.3-3.8-3.9
						c-4-1.3-10.5,0.3-17,4c1.2,0.6,2.3,1.4,3.5,2.1C46.1,128.2,51.8,127.8,53.9,130.1z"/>
				</g>
				<g>
					<defs>
						<path id="SVGID_00000045602824713377321250000016821266343652773261_" d="M53.9,130.1c0.7,0.8,0.9,1.8,0.8,3
							c-0.3,2.1-1.7,4.7-4,7.3c0.4,0.5,0.8,0.9,1.2,1.4c3.4-4.2,5.2-8.4,5.2-11.6c0-0.6-0.1-1.1-0.2-1.6c-0.5-1.9-1.7-3.3-3.8-3.9
							c-4-1.3-10.5,0.3-17,4c1.2,0.6,2.3,1.4,3.5,2.1C46.1,128.2,51.8,127.8,53.9,130.1z"/>
					</defs>
					<clipPath id="SVGID_00000106860534580744169280000010356814498947184297_">
						<use xlink:href="#SVGID_00000045602824713377321250000016821266343652773261_"  style="overflow:visible;"/>
					</clipPath>
					<g style="clip-path:url(#SVGID_00000106860534580744169280000010356814498947184297_);">
						
							<image style="overflow:visible;enable-background:new    ;" width="371" height="375" xlink:href="37D6DF86.png"  transform="matrix(0.2362 0 0 0.2362 6.8022 83.57)">
						</image>
					</g>
				</g>
			</g>
			<g>
				<g>
					<path id="SVGID_00000057113270010561573200000006595646731142326943_" class="st0" d="M53.9,130.1c0.7,0.8,0.9,1.8,0.8,3
						c-0.3,2.1-1.7,4.7-4,7.3c0.4,0.5,0.8,0.9,1.2,1.4c3.4-4.2,5.2-8.4,5.2-11.6c0-0.6-0.1-1.1-0.2-1.6c-0.5-1.9-1.7-3.3-3.8-3.9
						c-4-1.3-10.5,0.3-17,4c1.2,0.6,2.3,1.4,3.5,2.1C46.1,128.2,51.8,127.8,53.9,130.1z"/>
				</g>
				<g>
					<defs>
						<path id="SVGID_00000158029214999852841130000015368666149687188649_" d="M53.9,130.1c0.7,0.8,0.9,1.8,0.8,3
							c-0.3,2.1-1.7,4.7-4,7.3c0.4,0.5,0.8,0.9,1.2,1.4c3.4-4.2,5.2-8.4,5.2-11.6c0-0.6-0.1-1.1-0.2-1.6c-0.5-1.9-1.7-3.3-3.8-3.9
							c-4-1.3-10.5,0.3-17,4c1.2,0.6,2.3,1.4,3.5,2.1C46.1,128.2,51.8,127.8,53.9,130.1z"/>
					</defs>
					<clipPath id="SVGID_00000119828742778413600480000004640267442702298277_">
						<use xlink:href="#SVGID_00000158029214999852841130000015368666149687188649_"  style="overflow:visible;"/>
					</clipPath>
					<g style="clip-path:url(#SVGID_00000119828742778413600480000004640267442702298277_);">
						
							<image style="overflow:visible;enable-background:new    ;" width="375" height="371" xlink:href="37D6DF87.png"  transform="matrix(0.2368 0 0 0.2368 -8.3101 87.5236)">
						</image>
					</g>
				</g>
			</g>
			<g>
				<g>
					<path id="SVGID_00000058548239553954167430000009356157496782824357_" class="st0" d="M53.9,130.1c0.7,0.8,0.9,1.8,0.8,3
						c-0.3,2.1-1.7,4.7-4,7.3c0.4,0.5,0.8,0.9,1.2,1.4c3.4-4.2,5.2-8.4,5.2-11.6c0-0.6-0.1-1.1-0.2-1.6c-0.5-1.9-1.7-3.3-3.8-3.9
						c-4-1.3-10.5,0.3-17,4c1.2,0.6,2.3,1.4,3.5,2.1C46.1,128.2,51.8,127.8,53.9,130.1z"/>
				</g>
				<g>
					<defs>
						<path id="SVGID_00000004518401540911950660000015009245095698669482_" d="M53.9,130.1c0.7,0.8,0.9,1.8,0.8,3
							c-0.3,2.1-1.7,4.7-4,7.3c0.4,0.5,0.8,0.9,1.2,1.4c3.4-4.2,5.2-8.4,5.2-11.6c0-0.6-0.1-1.1-0.2-1.6c-0.5-1.9-1.7-3.3-3.8-3.9
							c-4-1.3-10.5,0.3-17,4c1.2,0.6,2.3,1.4,3.5,2.1C46.1,128.2,51.8,127.8,53.9,130.1z"/>
					</defs>
					<clipPath id="SVGID_00000165950933456443511960000000839214714765559223_">
						<use xlink:href="#SVGID_00000004518401540911950660000015009245095698669482_"  style="overflow:visible;"/>
					</clipPath>
					<g style="clip-path:url(#SVGID_00000165950933456443511960000000839214714765559223_);">
						
							<image style="overflow:visible;enable-background:new    ;" width="375" height="371" xlink:href="37D6DF82.png"  transform="matrix(0.2368 0 0 0.2368 -8.3101 90.5236)">
						</image>
					</g>
				</g>
			</g>
			<g>
				<g>
					<path id="SVGID_00000111179690955576392150000006057918907085704577_" class="st0" d="M53.9,130.1c0.7,0.8,0.9,1.8,0.8,3
						c-0.3,2.1-1.7,4.7-4,7.3c0.4,0.5,0.8,0.9,1.2,1.4c3.4-4.2,5.2-8.4,5.2-11.6c0-0.6-0.1-1.1-0.2-1.6c-0.5-1.9-1.7-3.3-3.8-3.9
						c-4-1.3-10.5,0.3-17,4c1.2,0.6,2.3,1.4,3.5,2.1C46.1,128.2,51.8,127.8,53.9,130.1z"/>
				</g>
			</g>
		</g>
		<path class="st0" d="M50.6,143.2c2.3,2.6,3.8,5.2,4,7.3c0.2,1.2-0.1,2.2-0.8,3c-2.1,2.4-7.8,1.9-14.3-0.7
			c-1.2,0.8-2.3,1.5-3.5,2.1c6.5,3.6,13,5.3,17,4c2-0.7,3.3-2,3.8-3.9c0.1-0.5,0.2-1.1,0.2-1.6c0-3.2-1.9-7.3-5.2-11.6
			C51.4,142.2,51,142.8,50.6,143.2z"/>
		<path class="st0" d="M22.9,141.8c-0.5,0.5-0.9,0.9-1.3,1.4c0.8,0.9,1.6,1.8,2.6,2.8c2.6,2.6,5.5,4.9,8.4,6.9
			c1.1-0.4,2.3-1,3.5-1.6c-1.9-0.9-3.8-2-5.6-3.2C27.6,146.1,25,143.9,22.9,141.8z"/>
		<path class="st0" d="M50.6,140.4c-0.8-0.9-1.7-1.8-2.6-2.8c-2.6-2.6-5.5-4.9-8.5-6.9c-1.2-0.8-2.3-1.5-3.5-2.1
			c-6.5-3.6-13-5.3-17-4c-2,0.7-3.3,2-3.8,3.9c-0.8,3.4,1.1,8.2,5.1,13.2c0.4-0.5,0.8-0.9,1.2-1.4c-2.3-2.6-3.8-5.2-4-7.3
			c0-0.2,0-0.5,0-0.7c0-0.9,0.3-1.7,0.8-2.3c2.1-2.3,7.8-1.9,14.3,0.7c1.1,0.4,2.3,1,3.5,1.6c1.9,0.9,3.8,2,5.6,3.2
			c2.9,1.9,5.5,4.1,7.6,6.2c0.5,0.5,0.9,0.9,1.3,1.4c0.4-0.5,0.8-0.9,1.2-1.4C51.4,141.4,51,140.9,50.6,140.4z"/>
		<path class="st0" d="M49.3,141.8c-2.1,2.1-4.7,4.3-7.6,6.2c-1.8,1.2-3.7,2.3-5.6,3.2c-1.2,0.6-2.3,1.1-3.5,1.6
			c-6.5,2.6-12.2,3.1-14.3,0.7c-0.5-0.6-0.8-1.4-0.8-2.3c0-0.2,0-0.4,0-0.7c0.3-2.1,1.7-4.7,4-7.3c0.4-0.5,0.8-0.9,1.3-1.4
			c2.1-2.1,4.7-4.3,7.6-6.2c1.8-1.2,3.7-2.3,5.6-3.2c-1.2-0.6-2.3-1.1-3.5-1.6c-3,1.9-5.8,4.3-8.5,6.9l0,0c-0.9,0.9-1.8,1.8-2.6,2.8
			c-0.4,0.5-0.8,0.9-1.2,1.4c-4,5-5.9,9.8-5.1,13.2c0.4,1.9,1.7,3.3,3.8,3.9c4,1.3,10.4-0.4,17-4c1.2-0.6,2.3-1.4,3.5-2.1
			c3-1.9,5.8-4.3,8.5-6.9c0.9-0.9,1.8-1.8,2.6-2.8C50.2,142.8,49.8,142.2,49.3,141.8z"/>
	</g>
	<path class="st0" d="M75,157.2h4.4v-16.4c0-0.2,0-0.4-0.1-0.7s-0.1-0.4-0.1-0.5c0.1,0.2,0.4,0.6,0.9,1.3s1.1,1.6,1.8,2.6
		s1.5,2.1,2.3,3.2c0.8,1.2,1.6,2.3,2.3,3.3c0.7,1,1.4,1.9,1.9,2.7s0.9,1.3,1.1,1.5c0.2-0.3,0.5-0.8,1.1-1.6c0.5-0.7,1.1-1.6,1.8-2.6
		s1.4-2,2.2-3.1c0.8-1.1,1.5-2.1,2.2-3.1s1.3-1.9,1.8-2.6c0.5-0.8,0.9-1.3,1.2-1.6c0,0.1,0,0.3-0.1,0.5c0,0.2-0.1,0.5-0.1,0.7v16.4
		h4.7v-30.7c-0.2,0.3-0.6,0.8-1.1,1.5c-0.5,0.7-1.1,1.5-1.8,2.5c-0.7,1-1.5,2-2.3,3.2s-1.7,2.3-2.5,3.5s-1.7,2.3-2.5,3.4
		s-1.5,2.1-2.2,3c-0.6,0.9-1.2,1.6-1.6,2.2c-0.4,0.6-0.7,1-0.8,1.1c-0.2-0.3-0.7-1-1.5-2c-0.7-1-1.6-2.2-2.6-3.6
		c-1-1.4-2.1-2.9-3.2-4.5s-2.2-3.1-3.2-4.5s-1.9-2.6-2.7-3.7c-0.8-1.1-1.3-1.8-1.5-2.2L75,157.2L75,157.2z M139.4,157.2v-10.9h4.3
		h0.9c0.5,0.8,1.1,1.6,1.6,2.6s1.2,1.9,1.8,2.8c0.6,0.9,1.2,1.9,1.8,2.9s1.2,1.9,1.8,2.8h5.5c-1.4-2.1-2.7-4.2-4-6.3
		c-1.3-2.2-2.6-4.1-3.7-5.9c0.9-0.4,1.6-1,2.2-1.7s1.1-1.4,1.5-2.2s0.7-1.6,0.8-2.4c0.2-0.8,0.2-1.7,0.2-2.5c0-1.6-0.3-2.9-0.8-4.1
		c-0.5-1.2-1.3-2.2-2.3-3.1c-1-0.8-2.1-1.5-3.5-1.9s-2.8-0.6-4.4-0.6h-8.4v30.7L139.4,157.2L139.4,157.2z M139.4,130.9h4.2
		c1.1,0,2,0.2,2.8,0.6c0.8,0.4,1.4,0.8,1.8,1.4c0.4,0.6,0.8,1.1,0.9,1.8c0.2,0.6,0.3,1.2,0.3,1.8s-0.1,1.1-0.3,1.8
		c-0.2,0.6-0.5,1.3-0.9,1.8c-0.4,0.6-1,1-1.8,1.4s-1.7,0.6-2.8,0.6h-4.2V130.9z M161.8,157.2h4.6v-30.7h-4.6V157.2z M171.2,157.2
		h9.2c2.1,0,4.1-0.4,5.9-1c1.9-0.7,3.5-1.7,4.9-3s2.5-2.9,3.3-4.7c0.8-1.9,1.2-3.9,1.2-6.2c0-1.9-0.3-3.7-0.9-5.6
		c-0.6-1.9-1.6-3.6-2.9-5.1s-3.1-2.7-5.2-3.7c-2.1-0.9-4.8-1.4-7.9-1.4h-7.7L171.2,157.2L171.2,157.2z M175.8,152.8v-21.8h4.4
		c1.4,0,2.7,0.2,4,0.7s2.5,1.1,3.5,2s1.9,2.1,2.5,3.4c0.6,1.4,1,3,1,4.9c0,1.8-0.3,3.3-0.9,4.6c-0.6,1.3-1.4,2.5-2.4,3.4
		s-2.2,1.6-3.6,2.1s-2.9,0.7-4.6,0.7L175.8,152.8L175.8,152.8z M200.4,157.2h4.6v-30.7h-4.6V157.2z M237,157.2
		c-0.2-0.4-0.5-1.1-0.9-2.1s-1-2.3-1.6-3.7c-0.6-1.5-1.3-3.1-2.1-4.8s-1.5-3.5-2.3-5.3s-1.5-3.6-2.3-5.4c-0.8-1.8-1.4-3.4-2-4.8
		c-0.6-1.4-1.1-2.7-1.6-3.7c-0.5-1-0.7-1.8-0.9-2.2l-13.7,32.1h4.6l3.6-8.8h10.8c0.4,1,0.8,1.9,1.2,2.9s0.7,1.8,1.1,2.5
		c0.3,0.8,0.6,1.5,0.9,2.1c0.2,0.6,0.4,1,0.6,1.4L237,157.2L237,157.2z M222.9,136.2c0-0.1,0.1-0.2,0.2-0.6s0.2-0.6,0.2-0.9
		c0.1,0.3,0.1,0.6,0.2,0.9c0.1,0.3,0.2,0.5,0.2,0.6c0.1,0.3,0.3,0.7,0.5,1.3c0.2,0.5,0.5,1.2,0.8,1.9s0.6,1.5,1,2.4s0.7,1.8,1.1,2.7
		h-7.7L222.9,136.2z M263.9,126.5v19.8l0.1,1.4l-0.8-1.2c-0.3-0.4-0.8-0.9-1.5-1.6c-0.7-0.7-1.5-1.6-2.5-2.5c-1-1-2-2-3.2-3.1
		c-1.2-1.1-2.4-2.2-3.6-3.4c-1.2-1.2-2.4-2.3-3.6-3.4c-1.2-1.1-2.2-2.2-3.2-3.1s-1.8-1.8-2.5-2.6c-0.7-0.7-1.2-1.3-1.5-1.7v32.1h4.6
		v-20.2l-0.1-1.4l0.8,1.1c0.4,0.5,1.1,1.3,2.2,2.4c1.1,1.1,2.4,2.4,3.9,3.9s3,3,4.7,4.6c1.6,1.6,3.2,3.1,4.7,4.6s2.8,2.8,3.9,3.9
		s1.9,1.9,2.3,2.4v-32.1L263.9,126.5L263.9,126.5z M113.9,139.7h-4.7v4.3h4.7h3h10.8v-4.3h-10.8H113.9z M113.9,130.8h3h12.5v-4.2
		h-20.1v4.2H113.9z M116.8,152.9h-3h-4.7v4.3h20.7v-4.3H116.8z"/>
</g>
</svg>
