<svg width="41" height="40" viewBox="0 0 41 40" fill="none" xmlns="http://www.w3.org/2000/svg">
  <rect x="4.46691" y="3.52941" width="32.9412" height="32.9412" stroke="black" stroke-width="7.05882" />
  <path
    d="M20.4446 0C9.67161 0 0.9375 8.73294 0.9375 19.5059C0.9375 30.2788 9.67043 39.0118 20.4446 39.0118C31.2187 39.0118 39.9505 30.2788 39.9505 19.5059C39.9505 8.73412 31.2175 0 20.4446 0ZM11.7223 10.7259H29.154C29.394 10.7259 29.6257 10.76 29.8469 10.8188C29.8163 10.8471 29.7846 10.8706 29.7575 10.9024L21.9669 19.7424C21.5751 20.1871 21.0329 20.4329 20.4387 20.4329C19.8458 20.4329 19.3023 20.1882 18.9105 19.7424L11.0423 10.8153C11.2599 10.7588 11.487 10.7259 11.7223 10.7259ZM31.8528 23.5518C31.8528 26.1671 29.7329 28.2871 27.1176 28.2871H13.7716C11.1563 28.2871 9.03514 26.1671 9.03514 23.5518V13.4188C9.03514 13.0424 9.11279 12.6847 9.25279 12.36L17.1399 21.3094C17.9764 22.2577 19.1798 22.8012 20.4446 22.8012C21.7093 22.8012 22.9128 22.2577 23.7493 21.3094L31.5399 12.4694C31.574 12.4306 31.5999 12.3871 31.6293 12.3459C31.7728 12.6753 31.8528 13.0376 31.8528 13.42V23.5518Z"
    fill="black" />
</svg>