<svg width="283" height="57" viewBox="0 0 283 57" fill="none" xmlns="http://www.w3.org/2000/svg">
<mask id="mask0_285_263" style="mask-type:alpha" maskUnits="userSpaceOnUse" x="0" y="0" width="283" height="57">
<path d="M60.1099 17.8502C60.7299 18.5502 60.9699 19.4902 60.8199 20.6402C60.5699 22.5902 59.2099 24.9802 57.0799 27.4302C57.4599 27.8702 57.8199 28.3002 58.1699 28.7402C61.2899 24.8002 63.0399 20.9802 63.0399 18.0002C63.0399 17.4702 62.9899 16.9702 62.8799 16.5002C62.4599 14.7302 61.2599 13.4602 59.3999 12.8502C55.6699 11.6202 49.6999 13.1702 43.6299 16.5502C44.6999 17.1502 45.7799 17.8002 46.8499 18.5102C52.8599 16.0902 58.1699 15.6702 60.1099 17.8502Z" fill="#FEFEFE"/>
<path d="M57.0801 30.0402C59.2201 32.4902 60.5701 34.8802 60.8201 36.8302C60.9701 37.9802 60.7301 38.9102 60.1101 39.6202C58.1701 41.8002 52.8701 41.3802 46.8401 38.9702C45.7701 39.6802 44.6901 40.3302 43.6201 40.9302C49.6901 44.3102 55.6701 45.8602 59.3901 44.6302C61.2501 44.0102 62.4501 42.7502 62.8701 40.9802C62.9801 40.5102 63.0301 40.0102 63.0301 39.4802C63.0301 36.5002 61.2901 32.6802 58.1601 28.7402C57.8201 29.1702 57.4501 29.6002 57.0801 30.0402Z" fill="url(#paint0_linear_285_263)"/>
<path d="M26.4 20.6302C26.37 20.4102 26.36 20.2002 26.36 19.9902C26.36 19.1302 26.61 18.4102 27.12 17.8402C29.06 15.6602 34.36 16.0802 40.39 18.4902C41.46 17.7802 42.54 17.1302 43.61 16.5302C37.54 13.1502 31.56 11.6002 27.84 12.8302C25.98 13.4502 24.78 14.7102 24.36 16.4802C23.62 19.6202 25.39 24.0802 29.06 28.7202C29.41 28.2802 29.77 27.8502 30.15 27.4102C28.01 24.9702 26.66 22.5802 26.4 20.6302Z" fill="url(#paint1_linear_285_263)"/>
<path d="M31.3506 28.73C30.9206 29.17 30.5206 29.6 30.1406 30.04C30.8806 30.89 31.6806 31.75 32.5406 32.6C34.9706 35 37.6506 37.15 40.3906 38.96C41.4506 38.54 42.5206 38.05 43.6106 37.51C41.8806 36.65 40.1206 35.64 38.4006 34.5C35.6906 32.71 33.2906 30.72 31.3506 28.73Z" fill="white"/>
<path d="M57.0804 27.4303C56.3404 26.5803 55.5504 25.7203 54.6904 24.8703C52.2604 22.4703 49.5804 20.3203 46.8404 18.5103C45.7704 17.8003 44.6904 17.1503 43.6204 16.5503C42.5504 17.1503 41.4704 17.8003 40.4004 18.5103C41.4604 18.9303 42.5304 19.4203 43.6204 19.9603C45.3504 20.8203 47.1104 21.8303 48.8304 22.9703C51.5404 24.7703 53.9504 26.7603 55.8804 28.7503C56.3104 29.1903 56.7104 29.6203 57.0804 30.0603C57.4604 29.6203 57.8204 29.1903 58.1704 28.7503C57.8204 28.3003 57.4504 27.8603 57.0804 27.4303Z" fill="white"/>
<path d="M55.8702 28.7302C53.9402 30.7202 51.5302 32.7102 48.8202 34.5102C47.1002 35.6502 45.3502 36.6602 43.6102 37.5202C42.5202 38.0602 41.4502 38.5402 40.3902 38.9702C34.3602 41.3802 29.0502 41.8002 27.1202 39.6202C26.6202 39.0502 26.3602 38.3302 26.3602 37.4702C26.3602 37.2702 26.3702 37.0502 26.4002 36.8302C26.6502 34.8802 28.0102 32.4902 30.1402 30.0402C30.5202 29.6002 30.9202 29.1702 31.3502 28.7302C33.2802 26.7402 35.6902 24.7502 38.4002 22.9502C40.1202 21.8102 41.8702 20.8002 43.6102 19.9402C42.5202 19.4002 41.4502 18.9202 40.3902 18.4902C37.6502 20.3002 34.9702 22.4502 32.5402 24.8502C31.6802 25.7002 30.8802 26.5602 30.1402 27.4102C29.7602 27.8502 29.4002 28.2802 29.0502 28.7202C25.3802 33.3602 23.6102 37.8202 24.3502 40.9602C24.7702 42.7302 25.9702 44.0002 27.8302 44.6102C31.5602 45.8402 37.5302 44.2902 43.6002 40.9102C44.6702 40.3102 45.7502 39.6602 46.8202 38.9502C49.5602 37.1402 52.2402 34.9902 54.6702 32.5902C55.5302 31.7402 56.3202 30.8802 57.0602 30.0302C56.7002 29.6102 56.3002 29.1702 55.8702 28.7302Z" fill="white"/>
<path d="M79.7202 43.0502H83.8202V27.7902C83.8202 27.5902 83.8002 27.3802 83.7602 27.1502C83.7202 26.9202 83.7002 26.7602 83.7002 26.6602C83.7802 26.8102 84.0502 27.2202 84.5302 27.8802C85.0102 28.5402 85.5702 29.3402 86.2202 30.2702C86.8702 31.2002 87.5802 32.2002 88.3402 33.2802C89.1002 34.3602 89.8302 35.3702 90.5202 36.3302C91.2102 37.2802 91.8102 38.1202 92.3202 38.8302C92.8302 39.5402 93.1802 40.0102 93.3502 40.2402C93.5302 39.9602 93.8502 39.4802 94.3302 38.7902C94.8102 38.1002 95.3602 37.3002 95.9802 36.4002C96.6102 35.5002 97.2702 34.5402 97.9702 33.5202C98.6702 32.5002 99.3402 31.5402 99.9802 30.6202C100.62 29.7102 101.18 28.8902 101.67 28.1802C102.16 27.4702 102.52 26.9602 102.74 26.6602C102.74 26.7602 102.72 26.9202 102.68 27.1502C102.64 27.3802 102.62 27.5902 102.62 27.7902V43.0502H106.98V14.5902C106.78 14.8402 106.45 15.3002 105.98 15.9602C105.52 16.6202 104.96 17.4002 104.31 18.2902C103.66 19.1802 102.95 20.1602 102.19 21.2402C101.43 22.3202 100.65 23.4002 99.8602 24.4902C99.0702 25.5802 98.3002 26.6502 97.5502 27.6902C96.8002 28.7302 96.1302 29.6602 95.5402 30.4902C94.9502 31.3202 94.4602 32.0102 94.0502 32.5602C93.6502 33.1102 93.4102 33.4502 93.3402 33.5802C93.1102 33.2802 92.6602 32.6502 91.9702 31.7002C91.2802 30.7502 90.4702 29.6302 89.5502 28.3402C88.6202 27.0502 87.6302 25.6702 86.5802 24.2002C85.5302 22.7302 84.5302 21.3502 83.5902 20.0502C82.6502 18.7502 81.8202 17.6002 81.1102 16.6102C80.4002 15.6202 79.9302 14.9502 79.7002 14.6002V43.0502H79.7202ZM139.48 43.0502V32.8802H143.48H144.27C144.74 33.6102 145.24 34.4002 145.78 35.2602C146.32 36.1102 146.87 36.9702 147.43 37.8502C147.99 38.7302 148.56 39.6102 149.12 40.5002C149.68 41.3902 150.23 42.2402 150.75 43.0502H155.89C154.63 41.1402 153.39 39.1802 152.16 37.1802C150.93 35.1802 149.79 33.3502 148.74 31.7002C149.53 31.2802 150.19 30.7602 150.74 30.1502C151.29 29.5402 151.74 28.8702 152.09 28.1502C152.44 27.4302 152.7 26.6802 152.86 25.9102C153.02 25.1402 153.1 24.3602 153.1 23.5702C153.1 22.1302 152.85 20.8502 152.35 19.7402C151.85 18.6302 151.15 17.6902 150.25 16.9102C149.35 16.1402 148.27 15.5602 147.03 15.1602C145.79 14.7702 144.42 14.5702 142.93 14.5702H135.16V43.0302H139.48V43.0502ZM139.48 18.5902H143.41C144.43 18.5902 145.29 18.7602 145.98 19.1002C146.67 19.4402 147.23 19.8702 147.65 20.3802C148.07 20.8902 148.36 21.4402 148.53 22.0302C148.7 22.6202 148.79 23.1602 148.79 23.6602C148.79 24.1602 148.7 24.7102 148.53 25.3102C148.36 25.9102 148.07 26.4702 147.67 27.0002C147.26 27.5202 146.71 27.9602 146 28.3202C145.29 28.6702 144.42 28.8502 143.37 28.8502H139.48V18.5902ZM160.25 42.9802H164.53V14.5202H160.25V42.9802ZM168.96 42.9802H177.52C179.46 42.9802 181.29 42.6602 183.02 42.0202C184.75 41.3802 186.26 40.4602 187.57 39.2502C188.88 38.0502 189.91 36.5902 190.67 34.8702C191.43 33.1602 191.81 31.2402 191.81 29.1202C191.81 27.3902 191.53 25.6602 190.97 23.9202C190.41 22.1802 189.5 20.6102 188.26 19.2102C187.02 17.8102 185.4 16.6802 183.41 15.8102C181.42 14.9502 178.99 14.5102 176.11 14.5102H168.97V42.9802H168.96ZM173.24 38.9002V18.6402H177.28C178.54 18.6402 179.77 18.8402 180.99 19.2502C182.21 19.6602 183.3 20.2802 184.27 21.1302C185.24 21.9802 186.02 23.0502 186.63 24.3302C187.23 25.6102 187.53 27.1202 187.53 28.8402C187.53 30.4602 187.26 31.9002 186.73 33.1402C186.19 34.3802 185.45 35.4302 184.49 36.2802C183.53 37.1302 182.41 37.7802 181.11 38.2202C179.81 38.6702 178.41 38.8902 176.89 38.8902H173.24V38.9002ZM196.11 42.9802H200.39V14.5202H196.11V42.9802ZM230.01 42.9802C229.85 42.6102 229.57 41.9502 229.17 41.0002C228.76 40.0502 228.27 38.8902 227.7 37.5302C227.12 36.1702 226.49 34.6802 225.8 33.0502C225.11 31.4302 224.4 29.7802 223.68 28.1002C222.96 26.4302 222.25 24.7702 221.56 23.1302C220.87 21.4902 220.24 20.0002 219.68 18.6502C219.12 17.3002 218.63 16.1402 218.23 15.1802C217.82 14.2102 217.54 13.5402 217.39 13.1802L204.71 42.9802H208.95L212.33 34.8102H222.38C222.75 35.7302 223.11 36.6102 223.46 37.4602C223.81 38.3102 224.14 39.1002 224.44 39.8202C224.74 40.5402 225.01 41.1702 225.24 41.7202C225.48 42.2702 225.66 42.6902 225.79 42.9802H230.01ZM216.93 23.5902C216.96 23.5402 217.02 23.3502 217.13 23.0402C217.23 22.7302 217.31 22.4402 217.37 22.1802C217.42 22.4402 217.49 22.7302 217.59 23.0402C217.68 23.3502 217.74 23.5402 217.77 23.5902C217.87 23.8802 218.03 24.2702 218.24 24.7702C218.45 25.2702 218.69 25.8502 218.97 26.5202C219.25 27.1902 219.55 27.9202 219.87 28.7202C220.2 29.5202 220.54 30.3502 220.91 31.2102H213.8L216.93 23.5902ZM254.99 14.5202V32.9302L255.11 34.2602L254.36 33.1602C254.1 32.8202 253.64 32.3102 252.99 31.6302C252.34 30.9502 251.56 30.1602 250.65 29.2702C249.75 28.3802 248.75 27.4202 247.67 26.3802C246.58 25.3502 245.48 24.2902 244.37 23.2202C243.26 22.1502 242.16 21.0902 241.07 20.0402C239.98 18.9902 238.99 18.0202 238.09 17.1202C237.19 16.2202 236.4 15.4302 235.73 14.7502C235.06 14.0702 234.58 13.5502 234.3 13.1802V42.9802H238.62V24.2202L238.5 22.9602L239.25 23.9802C239.59 24.4302 240.27 25.1802 241.29 26.2402C242.31 27.3002 243.5 28.5002 244.86 29.8502C246.22 31.2002 247.67 32.6202 249.2 34.1102C250.73 35.6002 252.18 37.0302 253.54 38.3902C254.9 39.7502 256.1 40.9602 257.15 42.0002C258.2 43.0502 258.9 43.8102 259.27 44.2802V14.5202H254.99ZM115.76 26.7902H111.44V30.7502H115.76H118.5H128.55V26.7902H118.5H115.76ZM115.76 18.4702H118.5H130.13V14.5802H111.44V18.4702H115.76ZM118.51 39.0802H115.77H111.45V43.0402H130.69V39.0802H118.51Z" fill="#FEFEFE"/>
</mask>
<g mask="url(#mask0_285_263)">
<rect x="5" y="-7.89502" width="268" height="56.4101" fill="white"/>
</g>
<defs>
<linearGradient id="paint0_linear_285_263" x1="44.5486" y1="38.187" x2="63.8719" y2="36.2658" gradientUnits="userSpaceOnUse">
<stop offset="0.6247" stop-color="#FEFEFE"/>
</linearGradient>
<linearGradient id="paint1_linear_285_263" x1="28.8595" y1="29.4982" x2="34.9098" y2="14.0834" gradientUnits="userSpaceOnUse">
<stop offset="0.0328" stop-color="#9D9D9C"/>
<stop offset="0.0473" stop-color="#A9A9A8"/>
<stop offset="0.0865" stop-color="#C3C3C3"/>
<stop offset="0.1315" stop-color="#D9D9D9"/>
<stop offset="0.184" stop-color="#EAEAEA"/>
<stop offset="0.249" stop-color="#F5F5F5"/>
<stop offset="0.3402" stop-color="#FCFCFC"/>
<stop offset="0.5933" stop-color="#FEFEFE"/>
<stop offset="0.6247" stop-color="#FEFEFE"/>
</linearGradient>
</defs>
</svg>
