<svg width="41" height="40" viewBox="0 0 41 40" fill="none" xmlns="http://www.w3.org/2000/svg">
  <rect x="4.11535" y="3.52941" width="32.9412" height="32.9412" stroke="black" stroke-width="7.05882" />
  <path
    d="M21.3664 26.123H18.9076C18.1605 26.123 17.5547 26.7289 17.5547 27.476C17.5547 28.2231 18.1605 28.8289 18.9076 28.8289H21.3664C22.1135 28.8289 22.7193 28.2231 22.7193 27.476C22.7205 26.7289 22.1147 26.123 21.3664 26.123Z"
    fill="black" />
  <path
    d="M20.0918 0C9.3189 0 0.585938 8.73294 0.585938 19.5059C0.585938 30.2788 9.3189 39.0118 20.0918 39.0118C30.8648 39.0118 39.5977 30.2788 39.5977 19.5059C39.5989 8.73412 30.8648 0 20.0918 0ZM27.9542 24.4729V24.7729V28.2235C27.9542 29.7812 26.6919 31.0435 25.1342 31.0435H15.1354C13.5777 31.0435 12.3154 29.7812 12.3154 28.2235V24.7729V24.4729V10.7894C12.3154 9.23177 13.5777 7.96941 15.1354 7.96941H25.1342C26.6919 7.96941 27.9542 9.23177 27.9542 10.7894V24.4729Z"
    fill="black" />
</svg>