<svg width="41" height="40" viewBox="0 0 41 40" fill="none" xmlns="http://www.w3.org/2000/svg">
  <rect x="4.17785" y="3.52941" width="32.9412" height="32.9412" stroke="black" stroke-width="7.05882" />
  <path
    d="M20.1637 0C9.3861 0 0.648438 8.73766 0.648438 19.5153C0.648438 30.293 9.3861 39.0306 20.1637 39.0306C30.9414 39.0306 39.6791 30.293 39.6791 19.5153C39.6791 8.73766 30.9414 0 20.1637 0ZM29.4696 12.6906C29.4131 13.4801 28.9625 16.2436 28.5108 19.233C27.8343 23.4636 27.1002 28.0882 27.1002 28.0882C27.1002 28.0882 26.9873 29.3859 26.0284 29.6106C25.0696 29.8365 23.4908 28.8212 23.2085 28.5953C22.9826 28.4259 18.9778 25.8882 17.5119 24.6471C17.1167 24.3082 16.6661 23.6318 17.5685 22.8424C19.599 20.9812 22.0237 18.6682 23.4908 17.2024C24.1673 16.5259 24.8449 14.9459 22.0249 16.8636C18.0202 19.6271 14.0719 22.2224 14.0719 22.2224C14.0719 22.2224 13.1696 22.7859 11.4779 22.2788C9.7861 21.7718 7.81195 21.0941 7.81195 21.0941C7.81195 21.0941 6.45784 20.2483 8.77078 19.3459C8.77078 19.3459 18.5284 15.3412 21.9119 13.9318C23.2096 13.3683 27.6085 11.5624 27.6085 11.5624C27.6085 11.5624 29.639 10.773 29.4696 12.6906Z"
    fill="black" />
</svg>