<svg width="41" height="40" viewBox="0 0 41 40" fill="none" xmlns="http://www.w3.org/2000/svg">
  <rect x="3.82629" y="3.52941" width="32.9412" height="32.9412" stroke="black" stroke-width="7.05882" />
  <path
    d="M20.2192 9.38672C15.0368 9.38672 10.8203 13.6032 10.8203 18.7856C10.8203 20.4973 11.2956 22.182 12.1945 23.6585L12.438 24.0585L11.4992 27.5632L15.0239 26.6185L15.4215 26.8549C16.8803 27.7243 18.5392 28.1843 20.2192 28.1843C25.4015 28.1843 29.618 23.9679 29.618 18.7856C29.618 13.6032 25.4015 9.38672 20.2192 9.38672ZM25.7403 22.3349C25.3909 23.1843 24.5215 23.7291 23.6404 23.8961C22.7992 24.0561 22.1039 23.7879 21.325 23.5302C20.6297 23.3008 19.9592 22.9656 19.3357 22.5844C18.0886 21.8209 17.0121 20.7985 16.1462 19.6232C15.8815 19.2644 15.6368 18.8902 15.4109 18.5044C15.1121 17.9938 14.8451 17.4561 14.7062 16.8808C14.6486 16.642 14.618 16.3937 14.6156 16.1467C14.605 15.2749 14.938 14.3949 15.6286 13.8326C16.0274 13.5079 16.6192 13.3655 17.0674 13.6185C17.5557 13.8938 17.8086 14.5891 18.0345 15.0761C18.2121 15.4573 18.4121 15.9573 18.3392 16.3855C18.2663 16.8137 17.9274 17.1749 17.658 17.4914C17.4756 17.7055 17.4485 17.8879 17.6003 18.1196C18.4933 19.6079 19.7333 20.689 21.3521 21.3337C21.5721 21.422 21.7438 21.3949 21.8862 21.2173C22.165 20.8726 22.4403 20.1985 22.8721 20.022C23.4345 19.7926 24.0545 20.1102 24.5321 20.3961C24.9768 20.662 25.7192 20.9879 25.8392 21.5373C25.8957 21.8044 25.8439 22.0843 25.7403 22.3349Z"
    fill="black" />
  <path
    d="M19.8122 0C9.03454 0 0.296875 8.73766 0.296875 19.5153C0.296875 30.293 9.03454 39.0306 19.8122 39.0306C30.5898 39.0306 39.3274 30.293 39.3274 19.5153C39.3274 8.73766 30.5898 0 19.8122 0ZM20.2157 30.3753C18.2968 30.3753 16.4027 29.8906 14.7063 28.9706L8.39689 30.6612L10.0792 24.3847C9.12629 22.6659 8.62509 20.7412 8.62509 18.7859C8.62509 12.3953 13.8239 7.19648 20.2145 7.19648C26.6051 7.19648 31.8039 12.3953 31.8039 18.7859C31.8051 25.1753 26.6063 30.3753 20.2157 30.3753Z"
    fill="black" />
</svg>